<svg width="163" height="40" viewBox="0 0 163 40" fill="none" xmlns="http://www.w3.org/2000/svg">
<path d="M33.0001 15.6084C32.9834 15.6084 32.9584 15.6084 32.9334 15.6084C28.5251 15.1667 24.1251 15.0001 19.7667 15.4417L18.0667 15.6084C17.7167 15.6417 17.4084 15.3917 17.3751 15.0417C17.3417 14.6917 17.5917 14.3917 17.9334 14.3584L19.6334 14.1917C24.0667 13.7417 28.5584 13.9167 33.0584 14.3584C33.4001 14.3917 33.6501 14.7001 33.6167 15.0417C33.5917 15.3667 33.3167 15.6084 33.0001 15.6084Z" fill="#E14A67"/>
<path d="M22.5834 14.7665C22.55 14.7665 22.5167 14.7665 22.475 14.7582C22.1417 14.6998 21.9084 14.3748 21.9667 14.0415L22.15 12.9498C22.2834 12.1498 22.4667 11.0415 24.4084 11.0415H26.5917C28.5417 11.0415 28.725 12.1915 28.85 12.9582L29.0334 14.0415C29.0917 14.3832 28.8584 14.7082 28.525 14.7582C28.1834 14.8165 27.8584 14.5832 27.8084 14.2498L27.625 13.1665C27.5084 12.4415 27.4834 12.2998 26.6 12.2998H24.4167C23.5334 12.2998 23.5167 12.4165 23.3917 13.1582L23.2 14.2415C23.15 14.5498 22.8834 14.7665 22.5834 14.7665Z" fill="#E14A67"/>
<path d="M28.175 28.9582H22.825C19.9167 28.9582 19.8 27.3498 19.7083 26.0498L19.1667 17.6582C19.1417 17.3165 19.4083 17.0165 19.75 16.9915C20.1 16.9748 20.3917 17.2332 20.4167 17.5748L20.9583 25.9665C21.05 27.2332 21.0833 27.7082 22.825 27.7082H28.175C29.925 27.7082 29.9583 27.2332 30.0417 25.9665L30.5833 17.5748C30.6083 17.2332 30.9083 16.9748 31.25 16.9915C31.5917 17.0165 31.8583 17.3082 31.8333 17.6582L31.2917 26.0498C31.2 27.3498 31.0833 28.9582 28.175 28.9582Z" fill="#E14A67"/>
<path d="M26.8834 24.375H24.1084C23.7667 24.375 23.4834 24.0917 23.4834 23.75C23.4834 23.4083 23.7667 23.125 24.1084 23.125H26.8834C27.2251 23.125 27.5084 23.4083 27.5084 23.75C27.5084 24.0917 27.2251 24.375 26.8834 24.375Z" fill="#E14A67"/>
<path d="M27.5834 21.0415H23.4167C23.0751 21.0415 22.7917 20.7582 22.7917 20.4165C22.7917 20.0748 23.0751 19.7915 23.4167 19.7915H27.5834C27.9251 19.7915 28.2084 20.0748 28.2084 20.4165C28.2084 20.7582 27.9251 21.0415 27.5834 21.0415Z" fill="#E14A67"/>
<path d="M48.34 25V15.2H51.581C52.2577 15.2 52.8923 15.3283 53.485 15.585C54.0777 15.837 54.598 16.1893 55.046 16.642C55.494 17.09 55.844 17.6103 56.096 18.203C56.3527 18.791 56.481 19.4233 56.481 20.1C56.481 20.7767 56.3527 21.4113 56.096 22.004C55.844 22.592 55.494 23.1123 55.046 23.565C54.598 24.013 54.0777 24.3653 53.485 24.622C52.8923 24.874 52.2577 25 51.581 25H48.34ZM49.516 23.824H51.581C52.0943 23.824 52.575 23.7283 53.023 23.537C53.4757 23.341 53.8723 23.0727 54.213 22.732C54.5537 22.3913 54.8197 21.997 55.011 21.549C55.207 21.0963 55.305 20.6133 55.305 20.1C55.305 19.5867 55.207 19.106 55.011 18.658C54.8197 18.2053 54.5513 17.8087 54.206 17.468C53.8653 17.1273 53.471 16.8613 53.023 16.67C52.575 16.474 52.0943 16.376 51.581 16.376H49.516V23.824ZM60.9032 25.182C60.2592 25.182 59.6712 25.0163 59.1392 24.685C58.6119 24.3537 58.1895 23.9103 57.8722 23.355C57.5595 22.795 57.4032 22.1767 57.4032 21.5C57.4032 20.9867 57.4942 20.5083 57.6762 20.065C57.8582 19.617 58.1079 19.225 58.4252 18.889C58.7472 18.5483 59.1205 18.2823 59.5452 18.091C59.9699 17.8997 60.4225 17.804 60.9032 17.804C61.4305 17.804 61.9135 17.9113 62.3522 18.126C62.7955 18.336 63.1735 18.63 63.4862 19.008C63.8035 19.386 64.0392 19.8247 64.1932 20.324C64.3519 20.8233 64.4102 21.3577 64.3682 21.927H58.6562C58.7122 22.3237 58.8429 22.6783 59.0482 22.991C59.2535 23.299 59.5149 23.544 59.8322 23.726C60.1542 23.908 60.5112 24.0013 60.9032 24.006C61.3232 24.006 61.7035 23.8987 62.0442 23.684C62.3849 23.4647 62.6602 23.166 62.8702 22.788L64.0672 23.068C63.7872 23.6887 63.3649 24.1973 62.8002 24.594C62.2355 24.986 61.6032 25.182 60.9032 25.182ZM58.6212 21.003H63.1852C63.1479 20.611 63.0219 20.254 62.8072 19.932C62.5925 19.6053 62.3195 19.344 61.9882 19.148C61.6569 18.952 61.2952 18.854 60.9032 18.854C60.5112 18.854 60.1519 18.9497 59.8252 19.141C59.4985 19.3323 59.2279 19.5913 59.0132 19.918C58.8032 20.24 58.6725 20.6017 58.6212 21.003ZM65.6795 25V14.5H66.8555V25H65.6795ZM71.7485 25.182C71.1045 25.182 70.5165 25.0163 69.9845 24.685C69.4572 24.3537 69.0348 23.9103 68.7175 23.355C68.4048 22.795 68.2485 22.1767 68.2485 21.5C68.2485 20.9867 68.3395 20.5083 68.5215 20.065C68.7035 19.617 68.9532 19.225 69.2705 18.889C69.5925 18.5483 69.9658 18.2823 70.3905 18.091C70.8152 17.8997 71.2678 17.804 71.7485 17.804C72.2758 17.804 72.7588 17.9113 73.1975 18.126C73.6408 18.336 74.0188 18.63 74.3315 19.008C74.6488 19.386 74.8845 19.8247 75.0385 20.324C75.1972 20.8233 75.2555 21.3577 75.2135 21.927H69.5015C69.5575 22.3237 69.6882 22.6783 69.8935 22.991C70.0988 23.299 70.3602 23.544 70.6775 23.726C70.9995 23.908 71.3565 24.0013 71.7485 24.006C72.1685 24.006 72.5488 23.8987 72.8895 23.684C73.2302 23.4647 73.5055 23.166 73.7155 22.788L74.9125 23.068C74.6325 23.6887 74.2102 24.1973 73.6455 24.594C73.0808 24.986 72.4485 25.182 71.7485 25.182ZM69.4665 21.003H74.0305C73.9932 20.611 73.8672 20.254 73.6525 19.932C73.4378 19.6053 73.1648 19.344 72.8335 19.148C72.5022 18.952 72.1405 18.854 71.7485 18.854C71.3565 18.854 70.9972 18.9497 70.6705 19.141C70.3438 19.3323 70.0732 19.5913 69.8585 19.918C69.6485 20.24 69.5178 20.6017 69.4665 21.003ZM80.1371 19.176H78.5481L78.5411 25H77.3651L77.3721 19.176H76.1681V18H77.3721L77.3651 15.802H78.5411L78.5481 18H80.1371V19.176ZM84.4942 25.182C83.8502 25.182 83.2622 25.0163 82.7302 24.685C82.2029 24.3537 81.7806 23.9103 81.4632 23.355C81.1506 22.795 80.9942 22.1767 80.9942 21.5C80.9942 20.9867 81.0852 20.5083 81.2672 20.065C81.4492 19.617 81.6989 19.225 82.0162 18.889C82.3382 18.5483 82.7116 18.2823 83.1362 18.091C83.5609 17.8997 84.0136 17.804 84.4942 17.804C85.0216 17.804 85.5046 17.9113 85.9432 18.126C86.3866 18.336 86.7646 18.63 87.0772 19.008C87.3946 19.386 87.6302 19.8247 87.7842 20.324C87.9429 20.8233 88.0012 21.3577 87.9592 21.927H82.2472C82.3032 22.3237 82.4339 22.6783 82.6392 22.991C82.8446 23.299 83.1059 23.544 83.4232 23.726C83.7452 23.908 84.1022 24.0013 84.4942 24.006C84.9142 24.006 85.2946 23.8987 85.6352 23.684C85.9759 23.4647 86.2512 23.166 86.4612 22.788L87.6582 23.068C87.3782 23.6887 86.9559 24.1973 86.3912 24.594C85.8266 24.986 85.1942 25.182 84.4942 25.182ZM82.2122 21.003H86.7762C86.7389 20.611 86.6129 20.254 86.3982 19.932C86.1836 19.6053 85.9106 19.344 85.5792 19.148C85.2479 18.952 84.8862 18.854 84.4942 18.854C84.1022 18.854 83.7429 18.9497 83.4162 19.141C83.0896 19.3323 82.8189 19.5913 82.6042 19.918C82.3942 20.24 82.2636 20.6017 82.2122 21.003ZM92.9978 25V15.2H96.2318C96.7591 15.2 97.2328 15.3283 97.6528 15.585C98.0775 15.8417 98.4135 16.1893 98.6608 16.628C98.9128 17.062 99.0388 17.5473 99.0388 18.084C99.0388 18.63 98.9105 19.1223 98.6538 19.561C98.4018 19.995 98.0611 20.3403 97.6318 20.597C97.2071 20.849 96.7405 20.975 96.2318 20.975H94.1738V25H92.9978ZM94.1738 19.799H96.1268C96.4441 19.799 96.7335 19.722 96.9948 19.568C97.2608 19.4093 97.4708 19.197 97.6248 18.931C97.7835 18.6603 97.8628 18.357 97.8628 18.021C97.8628 17.6803 97.7835 17.377 97.6248 17.111C97.4708 16.8403 97.2608 16.628 96.9948 16.474C96.7335 16.3153 96.4441 16.236 96.1268 16.236H94.1738V19.799ZM100.444 25V18H101.62V18.875C101.867 18.5483 102.18 18.2893 102.558 18.098C102.936 17.902 103.347 17.804 103.79 17.804C104.061 17.804 104.322 17.839 104.574 17.909L104.098 19.085C103.907 19.0243 103.72 18.994 103.538 18.994C103.188 18.994 102.866 19.0803 102.572 19.253C102.283 19.421 102.052 19.6497 101.879 19.939C101.706 20.2283 101.62 20.5503 101.62 20.905V25H100.444ZM108.359 25.182C107.715 25.182 107.127 25.0163 106.595 24.685C106.067 24.3537 105.645 23.9103 105.328 23.355C105.015 22.795 104.859 22.1767 104.859 21.5C104.859 20.9867 104.95 20.5083 105.132 20.065C105.314 19.617 105.563 19.225 105.881 18.889C106.203 18.5483 106.576 18.2823 107.001 18.091C107.425 17.8997 107.878 17.804 108.359 17.804C109.003 17.804 109.588 17.9697 110.116 18.301C110.648 18.6323 111.07 19.078 111.383 19.638C111.7 20.198 111.859 20.8187 111.859 21.5C111.859 22.0087 111.768 22.4847 111.586 22.928C111.404 23.3713 111.152 23.7633 110.83 24.104C110.512 24.44 110.141 24.7037 109.717 24.895C109.297 25.0863 108.844 25.182 108.359 25.182ZM108.359 24.006C108.797 24.006 109.192 23.8917 109.542 23.663C109.896 23.4297 110.174 23.124 110.375 22.746C110.58 22.3633 110.683 21.948 110.683 21.5C110.683 21.0427 110.578 20.6227 110.368 20.24C110.162 19.8573 109.885 19.5517 109.535 19.323C109.185 19.0943 108.793 18.98 108.359 18.98C107.92 18.98 107.526 19.0967 107.176 19.33C106.826 19.5587 106.548 19.8643 106.343 20.247C106.137 20.6297 106.035 21.0473 106.035 21.5C106.035 21.9667 106.14 22.3913 106.35 22.774C106.56 23.152 106.842 23.453 107.197 23.677C107.551 23.8963 107.939 24.006 108.359 24.006ZM118.811 14.5H119.987V25H118.811V23.81C118.573 24.2207 118.253 24.552 117.852 24.804C117.451 25.056 116.979 25.182 116.438 25.182C115.929 25.182 115.453 25.0863 115.01 24.895C114.567 24.7037 114.175 24.44 113.834 24.104C113.498 23.7633 113.234 23.3713 113.043 22.928C112.852 22.4847 112.756 22.0087 112.756 21.5C112.756 20.9913 112.852 20.5153 113.043 20.072C113.234 19.624 113.498 19.232 113.834 18.896C114.175 18.5553 114.567 18.2893 115.01 18.098C115.453 17.9067 115.929 17.811 116.438 17.811C116.979 17.811 117.451 17.937 117.852 18.189C118.253 18.441 118.573 18.7723 118.811 19.183V14.5ZM116.452 24.041C116.914 24.041 117.313 23.929 117.649 23.705C117.99 23.4763 118.251 23.1683 118.433 22.781C118.62 22.3937 118.713 21.9667 118.713 21.5C118.713 21.024 118.62 20.5947 118.433 20.212C118.246 19.8247 117.983 19.519 117.642 19.295C117.306 19.0663 116.909 18.952 116.452 18.952C115.99 18.952 115.57 19.0663 115.192 19.295C114.819 19.5237 114.52 19.8317 114.296 20.219C114.072 20.6017 113.96 21.0287 113.96 21.5C113.96 21.9713 114.074 22.4007 114.303 22.788C114.532 23.1707 114.835 23.4763 115.213 23.705C115.591 23.929 116.004 24.041 116.452 24.041ZM121.586 22.34V18H122.762V22.081C122.762 22.4357 122.849 22.7577 123.021 23.047C123.194 23.3363 123.425 23.5673 123.714 23.74C124.008 23.908 124.33 23.992 124.68 23.992C125.035 23.992 125.355 23.908 125.639 23.74C125.929 23.5673 126.16 23.3363 126.332 23.047C126.505 22.7577 126.591 22.4357 126.591 22.081V18H127.767L127.774 25H126.598L126.591 24.111C126.344 24.4377 126.031 24.699 125.653 24.895C125.275 25.0863 124.867 25.182 124.428 25.182C123.906 25.182 123.427 25.056 122.993 24.804C122.564 24.5473 122.221 24.2043 121.964 23.775C121.712 23.3457 121.586 22.8673 121.586 22.34ZM134.135 23.152L135.185 23.719C134.868 24.1623 134.464 24.517 133.974 24.783C133.489 25.049 132.962 25.182 132.392 25.182C131.748 25.182 131.16 25.0163 130.628 24.685C130.101 24.3537 129.679 23.9103 129.361 23.355C129.049 22.795 128.892 22.1767 128.892 21.5C128.892 20.9867 128.983 20.5083 129.165 20.065C129.347 19.617 129.597 19.225 129.914 18.889C130.236 18.5483 130.61 18.2823 131.034 18.091C131.459 17.8997 131.912 17.804 132.392 17.804C132.962 17.804 133.489 17.937 133.974 18.203C134.464 18.469 134.868 18.826 135.185 19.274L134.135 19.841C133.911 19.5657 133.645 19.3533 133.337 19.204C133.029 19.0547 132.714 18.98 132.392 18.98C131.958 18.98 131.564 19.0967 131.209 19.33C130.859 19.5587 130.582 19.8643 130.376 20.247C130.171 20.6297 130.068 21.0473 130.068 21.5C130.068 21.9527 130.171 22.3703 130.376 22.753C130.586 23.131 130.866 23.4343 131.216 23.663C131.571 23.8917 131.963 24.006 132.392 24.006C132.738 24.006 133.062 23.9267 133.365 23.768C133.669 23.6093 133.925 23.404 134.135 23.152ZM140.275 19.176H138.686L138.679 25H137.503L137.51 19.176H136.306V18H137.51L137.503 15.802H138.679L138.686 18H140.275V19.176ZM143.796 25.133C143.418 25.119 143.05 25.049 142.69 24.923C142.336 24.7923 142.023 24.6173 141.752 24.398C141.486 24.174 141.293 23.9173 141.171 23.628L142.179 23.194C142.249 23.3527 142.375 23.502 142.557 23.642C142.739 23.782 142.949 23.894 143.187 23.978C143.425 24.062 143.666 24.104 143.908 24.104C144.165 24.104 144.405 24.0643 144.629 23.985C144.853 23.9057 145.035 23.789 145.175 23.635C145.32 23.4763 145.392 23.2873 145.392 23.068C145.392 22.8347 145.313 22.6527 145.154 22.522C145 22.3867 144.804 22.2817 144.566 22.207C144.333 22.1277 144.095 22.053 143.852 21.983C143.372 21.8617 142.942 21.717 142.564 21.549C142.186 21.3763 141.888 21.1593 141.668 20.898C141.454 20.632 141.346 20.2937 141.346 19.883C141.346 19.449 141.465 19.0733 141.703 18.756C141.946 18.4387 142.263 18.1937 142.655 18.021C143.047 17.8483 143.467 17.762 143.915 17.762C144.48 17.762 144.996 17.8833 145.462 18.126C145.929 18.3687 146.277 18.6977 146.505 19.113L145.56 19.666C145.481 19.498 145.36 19.351 145.196 19.225C145.033 19.0943 144.846 18.9917 144.636 18.917C144.426 18.8423 144.212 18.8027 143.992 18.798C143.722 18.7887 143.467 18.8237 143.229 18.903C142.996 18.9823 142.807 19.1037 142.662 19.267C142.522 19.4257 142.452 19.624 142.452 19.862C142.452 20.0953 142.527 20.2727 142.676 20.394C142.83 20.5153 143.029 20.6133 143.271 20.688C143.519 20.758 143.787 20.8397 144.076 20.933C144.501 21.0683 144.898 21.2247 145.266 21.402C145.635 21.5793 145.931 21.801 146.155 22.067C146.384 22.333 146.496 22.662 146.491 23.054C146.491 23.4833 146.363 23.859 146.106 24.181C145.85 24.4983 145.516 24.741 145.105 24.909C144.699 25.077 144.263 25.1517 143.796 25.133Z" fill="#E14A67"/>
<rect x="0.5" y="0.5" width="162" height="39" rx="11.5" stroke="#E14A67"/>
</svg>
