<svg width="16" height="17" viewBox="0 0 16 17" fill="none" xmlns="http://www.w3.org/2000/svg">
<g id="vuesax/linear/discount-shape">
<g id="vuesax/linear/discount-shape_2">
<path id="Vector" d="M2.65926 10.295L1.64594 9.28166C1.2326 8.86833 1.2326 8.18832 1.64594 7.77499L2.65926 6.76164C2.8326 6.58831 2.9726 6.2483 2.9726 6.0083V4.57495C2.9726 3.98829 3.4526 3.5083 4.03927 3.5083H5.4726C5.7126 3.5083 6.0526 3.36832 6.22593 3.19499L7.23926 2.18164C7.65259 1.76831 8.3326 1.76831 8.74593 2.18164L9.75928 3.19499C9.93261 3.36832 10.2726 3.5083 10.5126 3.5083H11.9459C12.5326 3.5083 13.0126 3.98829 13.0126 4.57495V6.0083C13.0126 6.2483 13.1526 6.58831 13.3259 6.76164L14.3393 7.77499C14.7526 8.18832 14.7526 8.86833 14.3393 9.28166L13.3259 10.295C13.1526 10.4683 13.0126 10.8083 13.0126 11.0483V12.4816C13.0126 13.0683 12.5326 13.5483 11.9459 13.5483H10.5126C10.2726 13.5483 9.93261 13.6883 9.75928 13.8617L8.74593 14.875C8.3326 15.2883 7.65259 15.2883 7.23926 14.875L6.22593 13.8617C6.0526 13.6883 5.7126 13.5483 5.4726 13.5483H4.03927C3.4526 13.5483 2.9726 13.0683 2.9726 12.4816V11.0483C2.9726 10.8017 2.8326 10.4617 2.65926 10.295Z" stroke="#13141B" stroke-width="1.5" stroke-linecap="round" stroke-linejoin="round"/>
<path id="Vector_2" d="M6 10.5214L10 6.52136" stroke="#13141B" stroke-width="1.5" stroke-linecap="round" stroke-linejoin="round"/>
<path id="Vector_3" d="M9.66298 10.188H9.66897" stroke="#13141B" stroke-width="2" stroke-linecap="round" stroke-linejoin="round"/>
<path id="Vector_4" d="M6.32967 6.8547H6.33566" stroke="#13141B" stroke-width="2" stroke-linecap="round" stroke-linejoin="round"/>
</g>
</g>
</svg>
