<svg width="208" height="60" viewBox="0 0 208 60" fill="none" xmlns="http://www.w3.org/2000/svg">
<g filter="url(#filter0_d_548_6100)">
<rect x="6" y="2" width="196" height="48" rx="14" fill="#FB6C23" shape-rendering="crispEdges"/>
<path d="M48.5 26H60.5" stroke="white" stroke-width="1.5" stroke-linecap="round" stroke-linejoin="round"/>
<path d="M54.5 32V20" stroke="white" stroke-width="1.5" stroke-linecap="round" stroke-linejoin="round"/>
<path d="M83.0605 21.2H85.0275L88.5905 31H86.7775L86.1475 29.264H81.9475L81.3175 31H79.5045L83.0605 21.2ZM82.5705 27.556H85.5175L84.0405 23.517L82.5705 27.556ZM94.7785 20.5H96.4865V31H94.7785V30.125C94.5545 30.4377 94.2722 30.692 93.9315 30.888C93.5908 31.084 93.1965 31.182 92.7485 31.182C92.2398 31.182 91.7638 31.0863 91.3205 30.895C90.8772 30.7037 90.4852 30.44 90.1445 30.104C89.8085 29.7633 89.5448 29.3713 89.3535 28.928C89.1622 28.4847 89.0665 28.0087 89.0665 27.5C89.0665 26.9913 89.1622 26.5153 89.3535 26.072C89.5448 25.6287 89.8085 25.239 90.1445 24.903C90.4852 24.5623 90.8772 24.2963 91.3205 24.105C91.7638 23.9137 92.2398 23.818 92.7485 23.818C93.1965 23.818 93.5908 23.916 93.9315 24.112C94.2722 24.3033 94.5545 24.5577 94.7785 24.875V20.5ZM92.7695 29.537C93.1335 29.537 93.4555 29.446 93.7355 29.264C94.0155 29.082 94.2348 28.837 94.3935 28.529C94.5522 28.2163 94.6315 27.8733 94.6315 27.5C94.6315 27.122 94.5522 26.779 94.3935 26.471C94.2348 26.1583 94.0132 25.911 93.7285 25.729C93.4485 25.547 93.1288 25.456 92.7695 25.456C92.4102 25.456 92.0812 25.5493 91.7825 25.736C91.4885 25.918 91.2528 26.163 91.0755 26.471C90.9028 26.779 90.8165 27.122 90.8165 27.5C90.8165 27.878 90.9052 28.221 91.0825 28.529C91.2598 28.837 91.4955 29.082 91.7895 29.264C92.0882 29.446 92.4148 29.537 92.7695 29.537ZM103.551 20.5H105.259V31H103.551V30.125C103.327 30.4377 103.044 30.692 102.704 30.888C102.363 31.084 101.969 31.182 101.521 31.182C101.012 31.182 100.536 31.0863 100.093 30.895C99.6494 30.7037 99.2574 30.44 98.9168 30.104C98.5808 29.7633 98.3171 29.3713 98.1258 28.928C97.9344 28.4847 97.8388 28.0087 97.8388 27.5C97.8388 26.9913 97.9344 26.5153 98.1258 26.072C98.3171 25.6287 98.5808 25.239 98.9168 24.903C99.2574 24.5623 99.6494 24.2963 100.093 24.105C100.536 23.9137 101.012 23.818 101.521 23.818C101.969 23.818 102.363 23.916 102.704 24.112C103.044 24.3033 103.327 24.5577 103.551 24.875V20.5ZM101.542 29.537C101.906 29.537 102.228 29.446 102.508 29.264C102.788 29.082 103.007 28.837 103.166 28.529C103.324 28.2163 103.404 27.8733 103.404 27.5C103.404 27.122 103.324 26.779 103.166 26.471C103.007 26.1583 102.785 25.911 102.501 25.729C102.221 25.547 101.901 25.456 101.542 25.456C101.182 25.456 100.853 25.5493 100.555 25.736C100.261 25.918 100.025 26.163 99.8478 26.471C99.6751 26.779 99.5888 27.122 99.5888 27.5C99.5888 27.878 99.6774 28.221 99.8548 28.529C100.032 28.837 100.268 29.082 100.562 29.264C100.86 29.446 101.187 29.537 101.542 29.537ZM110.704 31V21.2H114.204C114.736 21.2 115.216 21.333 115.646 21.599C116.08 21.865 116.423 22.222 116.675 22.67C116.927 23.118 117.053 23.6103 117.053 24.147C117.053 24.6977 116.922 25.197 116.661 25.645C116.404 26.0883 116.059 26.443 115.625 26.709C115.191 26.9703 114.717 27.101 114.204 27.101H112.412V31H110.704ZM112.412 25.393H114.022C114.264 25.393 114.486 25.3323 114.687 25.211C114.887 25.0897 115.046 24.9263 115.163 24.721C115.284 24.5157 115.345 24.287 115.345 24.035C115.345 23.7783 115.284 23.5473 115.163 23.342C115.046 23.1367 114.887 22.9733 114.687 22.852C114.486 22.7307 114.264 22.67 114.022 22.67H112.412V25.393ZM118.348 31L118.341 24H120.049L120.056 24.623C120.294 24.371 120.579 24.1727 120.91 24.028C121.242 23.8787 121.599 23.804 121.981 23.804C122.238 23.804 122.495 23.8413 122.751 23.916L122.079 25.638C121.902 25.568 121.725 25.533 121.547 25.533C121.272 25.533 121.02 25.6007 120.791 25.736C120.567 25.8667 120.388 26.0463 120.252 26.275C120.122 26.499 120.056 26.7487 120.056 27.024V31H118.348ZM126.488 31.182C125.844 31.182 125.256 31.0163 124.724 30.685C124.197 30.3537 123.775 29.9103 123.457 29.355C123.145 28.795 122.988 28.1767 122.988 27.5C122.988 26.9867 123.079 26.5083 123.261 26.065C123.443 25.617 123.693 25.225 124.01 24.889C124.332 24.5483 124.706 24.2823 125.13 24.091C125.555 23.8997 126.008 23.804 126.488 23.804C127.132 23.804 127.718 23.9697 128.245 24.301C128.777 24.6323 129.2 25.078 129.512 25.638C129.83 26.198 129.988 26.8187 129.988 27.5C129.988 28.0087 129.897 28.4847 129.715 28.928C129.533 29.3713 129.281 29.7633 128.959 30.104C128.642 30.44 128.271 30.7037 127.846 30.895C127.426 31.0863 126.974 31.182 126.488 31.182ZM126.488 29.474C126.829 29.474 127.135 29.383 127.405 29.201C127.676 29.019 127.888 28.7787 128.042 28.48C128.201 28.1813 128.28 27.8547 128.28 27.5C128.28 27.136 128.199 26.8047 128.035 26.506C127.877 26.2027 127.66 25.9623 127.384 25.785C127.114 25.603 126.815 25.512 126.488 25.512C126.152 25.512 125.849 25.603 125.578 25.785C125.308 25.967 125.093 26.2097 124.934 26.513C124.776 26.8163 124.696 27.1453 124.696 27.5C124.696 27.8687 124.778 28.2023 124.941 28.501C125.105 28.7997 125.322 29.0377 125.592 29.215C125.868 29.3877 126.166 29.474 126.488 29.474ZM136.598 20.5H138.306V31H136.598V30.125C136.374 30.4377 136.091 30.692 135.751 30.888C135.41 31.084 135.016 31.182 134.568 31.182C134.059 31.182 133.583 31.0863 133.14 30.895C132.696 30.7037 132.304 30.44 131.964 30.104C131.628 29.7633 131.364 29.3713 131.173 28.928C130.981 28.4847 130.886 28.0087 130.886 27.5C130.886 26.9913 130.981 26.5153 131.173 26.072C131.364 25.6287 131.628 25.239 131.964 24.903C132.304 24.5623 132.696 24.2963 133.14 24.105C133.583 23.9137 134.059 23.818 134.568 23.818C135.016 23.818 135.41 23.916 135.751 24.112C136.091 24.3033 136.374 24.5577 136.598 24.875V20.5ZM134.589 29.537C134.953 29.537 135.275 29.446 135.555 29.264C135.835 29.082 136.054 28.837 136.213 28.529C136.371 28.2163 136.451 27.8733 136.451 27.5C136.451 27.122 136.371 26.779 136.213 26.471C136.054 26.1583 135.832 25.911 135.548 25.729C135.268 25.547 134.948 25.456 134.589 25.456C134.229 25.456 133.9 25.5493 133.602 25.736C133.308 25.918 133.072 26.163 132.895 26.471C132.722 26.779 132.636 27.122 132.636 27.5C132.636 27.878 132.724 28.221 132.902 28.529C133.079 28.837 133.315 29.082 133.609 29.264C133.907 29.446 134.234 29.537 134.589 29.537ZM139.907 28.41V24H141.615V27.962C141.615 28.2373 141.683 28.4893 141.818 28.718C141.954 28.942 142.133 29.1217 142.357 29.257C142.586 29.3877 142.836 29.453 143.106 29.453C143.386 29.453 143.638 29.3877 143.862 29.257C144.086 29.1217 144.266 28.942 144.401 28.718C144.537 28.4893 144.604 28.2373 144.604 27.962V24H146.312L146.319 31H144.611L144.604 30.363C144.362 30.615 144.075 30.8157 143.743 30.965C143.412 31.1097 143.057 31.182 142.679 31.182C142.171 31.182 141.706 31.0583 141.286 30.811C140.866 30.559 140.53 30.2253 140.278 29.81C140.031 29.39 139.907 28.9233 139.907 28.41ZM152.151 28.893L153.691 29.726C153.369 30.1647 152.965 30.517 152.48 30.783C151.995 31.049 151.465 31.182 150.891 31.182C150.247 31.182 149.659 31.0163 149.127 30.685C148.6 30.3537 148.177 29.9103 147.86 29.355C147.547 28.795 147.391 28.1767 147.391 27.5C147.391 26.9867 147.482 26.5083 147.664 26.065C147.846 25.617 148.096 25.225 148.413 24.889C148.735 24.5483 149.108 24.2823 149.533 24.091C149.958 23.8997 150.41 23.804 150.891 23.804C151.465 23.804 151.995 23.937 152.48 24.203C152.965 24.469 153.369 24.826 153.691 25.274L152.151 26.1C151.988 25.9133 151.794 25.7687 151.57 25.666C151.351 25.5633 151.124 25.512 150.891 25.512C150.555 25.512 150.252 25.6053 149.981 25.792C149.71 25.974 149.496 26.2167 149.337 26.52C149.178 26.8187 149.099 27.1453 149.099 27.5C149.099 27.85 149.178 28.1767 149.337 28.48C149.496 28.7787 149.71 29.019 149.981 29.201C150.252 29.383 150.555 29.474 150.891 29.474C151.134 29.474 151.365 29.4227 151.584 29.32C151.803 29.2127 151.992 29.0703 152.151 28.893ZM158.9 25.708H157.542V31H155.834V25.708H154.798V24H155.834V21.802H157.542V24H158.9V25.708ZM162.321 31.126C161.957 31.1027 161.605 31.0303 161.264 30.909C160.928 30.783 160.629 30.6127 160.368 30.398C160.107 30.1833 159.906 29.9267 159.766 29.628L161.208 29.012C161.264 29.1053 161.355 29.2057 161.481 29.313C161.607 29.4157 161.756 29.502 161.929 29.572C162.106 29.642 162.3 29.677 162.51 29.677C162.687 29.677 162.855 29.6537 163.014 29.607C163.177 29.5557 163.308 29.4787 163.406 29.376C163.509 29.2733 163.56 29.1403 163.56 28.977C163.56 28.8043 163.499 28.6713 163.378 28.578C163.261 28.48 163.112 28.4077 162.93 28.361C162.753 28.3097 162.58 28.263 162.412 28.221C161.969 28.1323 161.556 27.9947 161.173 27.808C160.795 27.6213 160.489 27.381 160.256 27.087C160.027 26.7883 159.913 26.429 159.913 26.009C159.913 25.547 160.034 25.148 160.277 24.812C160.524 24.476 160.844 24.217 161.236 24.035C161.633 23.853 162.06 23.762 162.517 23.762C163.072 23.762 163.581 23.8787 164.043 24.112C164.51 24.3407 164.878 24.665 165.149 25.085L163.798 25.883C163.733 25.771 163.642 25.6683 163.525 25.575C163.408 25.477 163.275 25.3977 163.126 25.337C162.977 25.2717 162.82 25.2343 162.657 25.225C162.447 25.2157 162.256 25.2343 162.083 25.281C161.91 25.3277 161.77 25.407 161.663 25.519C161.56 25.631 161.509 25.7803 161.509 25.967C161.509 26.1443 161.579 26.2773 161.719 26.366C161.859 26.45 162.027 26.5153 162.223 26.562C162.424 26.6087 162.615 26.66 162.797 26.716C163.208 26.8513 163.593 27.017 163.952 27.213C164.316 27.409 164.608 27.6493 164.827 27.934C165.046 28.2187 165.151 28.5593 165.142 28.956C165.142 29.4087 165.007 29.8053 164.736 30.146C164.465 30.482 164.115 30.7387 163.686 30.916C163.261 31.0933 162.806 31.1633 162.321 31.126Z" fill="white"/>
</g>
<defs>
<filter id="filter0_d_548_6100" x="0" y="0" width="208" height="60" filterUnits="userSpaceOnUse" color-interpolation-filters="sRGB">
<feFlood flood-opacity="0" result="BackgroundImageFix"/>
<feColorMatrix in="SourceAlpha" type="matrix" values="0 0 0 0 0 0 0 0 0 0 0 0 0 0 0 0 0 0 127 0" result="hardAlpha"/>
<feOffset dy="4"/>
<feGaussianBlur stdDeviation="3"/>
<feComposite in2="hardAlpha" operator="out"/>
<feColorMatrix type="matrix" values="0 0 0 0 0.984314 0 0 0 0 0.423529 0 0 0 0 0.137255 0 0 0 0.2 0"/>
<feBlend mode="normal" in2="BackgroundImageFix" result="effect1_dropShadow_548_6100"/>
<feBlend mode="normal" in="SourceGraphic" in2="effect1_dropShadow_548_6100" result="shape"/>
</filter>
</defs>
</svg>
